#!OML:ASF F:\VICON\USERDATA\INSTALL\rory3\rory3.ASF
:FULLY-SPECIFIED
:DEGREES
1755
root 0.339211 15.9473 -0.503465 -1.47727 -0.574246 -0.200067
lowerback 15.4328 0.800856 -1.07616
upperback 0.45302 0.83477 -0.42036
thorax -8.19708 0.435646 -0.0251489
lowerneck -14.6635 -4.12704 -8.32758
upperneck 33.9836 -7.13674 9.79539
head 14.9345 -2.84403 4.33655
rclavicle -2.1593e-014 5.1684e-015
rhumerus 70.2902 66.9313 -42.5966
rradius 57.0306
rwrist 17.615
rhand -4.79378 12.2595
rfingers 7.12502
rthumb 20.9915 -16.6245
lclavicle -2.1593e-014 5.1684e-015
lhumerus 51.0585 -78.3269 55.7403
lradius 55.1003
lwrist -4.00365
lhand -11.7807 9.0279
lfingers 7.12502
lthumb 14.2683 38.5177
rfemur -6.45822 10.9132 16.8571
rtibia 25.6814
rfoot -13.4616 -12.0728
rtoes -10.0634
lfemur -4.32279 -10.9379 -17.5961
ltibia 21.454
lfoot -11.5804 8.31335
ltoes -12.2814
1756
root 0.343004 15.9497 -0.505592 -1.48362 -0.729307 -0.0753324
lowerback 15.3692 0.826632 -1.11595
upperback 0.483383 0.856475 -0.498672
thorax -8.12808 0.445834 -0.0899727
lowerneck -14.6815 -4.20063 -8.36312
upperneck 34.0399 -7.26664 9.85972
head 14.9882 -2.89599 4.35062
rclavicle 2.75814e-015 -7.55382e-015
rhumerus 67.8876 66.3785 -45.0099
rradius 55.6087
rwrist 17.4594
rhand -4.99457 12.4607
rfingers 7.12502
rthumb 20.7986 -16.4446
lclavicle 2.75814e-015 -7.55382e-015
lhumerus 47.0285 -77.6636 59.3706
lradius 54.3837
lwrist -3.7846
lhand -11.8074 8.81773
lfingers 7.12502
lthumb 14.2426 38.3094
rfemur -6.49109 11.037 16.6955
rtibia 25.6867
rfoot -13.4555 -12.0319
rtoes -9.97649
lfemur -4.18615 -10.833 -17.7547
ltibia 21.2634
lfoot -11.547 8.36721
ltoes -12.0295
1757
root 0.34475 15.9533 -0.511968 -1.4198 -0.884847 -0.0746979
lowerback 15.2748 0.844683 -1.07343
upperback 0.496743 0.886651 -0.531916
thorax -8.05967 0.457993 -0.154689
lowerneck -14.6851 -4.25619 -8.38282
upperneck 34.0375 -7.36339 9.9075
head 15.0048 -2.93421 4.35748
rclavicle 5.06901e-015 -1.19271e-015
rhumerus 65.4307 65.7513 -47.3779
rradius 54.3078
rwrist 17.2568
rhand -5.30747 12.3243
rfingers 7.12502
rthumb 20.498 -16.6136
lclavicle 5.06901e-015 -1.19271e-015
lhumerus 43.0785 -76.8413 62.9064
lradius 53.6545
lwrist -3.66503
lhand -11.8635 8.67873
lfingers 7.12502
lthumb 14.1885 38.1742
rfemur -6.62155 11.1694 16.6774
rtibia 25.6773
rfoot -13.3696 -12.0559
rtoes -10.3586
lfemur -4.17933 -10.7345 -17.7392
ltibia 21.118
lfoot -11.5244 8.43528
ltoes -12.2514
1758
root 0.348732 15.9546 -0.518322 -1.43379 -0.999965 -0.111546
lowerback 15.2757 0.844097 -0.998976
upperback 0.514023 0.899729 -0.522714
thorax -8.04055 0.461588 -0.1897
lowerneck -14.6316 -4.29602 -8.45137
upperneck 34.0146 -7.41732 9.9402
head 14.994 -2.96404 4.3735
rclavicle 4.94477e-015 5.96354e-015
rhumerus 62.4848 65.0622 -50.1495
rradius 53.124
rwrist 17.0654
rhand -5.55456 12.2064
rfingers 7.12502
rthumb 20.2605 -16.7569
lclavicle 4.94477e-015 5.96354e-015
lhumerus 38.6716 -75.7954 66.9887
lradius 52.9208
lwrist -3.54152
lhand -11.6066 8.43663
lfingers 7.12502
lthumb 14.436 37.9145
rfemur -6.65083 11.2137 16.6946
rtibia 25.6648
rfoot -13.3594 -11.9596
rtoes -10.2725
lfemur -4.1105 -10.7108 -17.7135
ltibia 21.0214
lfoot -11.5072 8.43662
ltoes -11.8768
1759
root 0.351205 15.9544 -0.526282 -1.43649 -1.10368 -0.0685287
lowerback 15.295 0.85214 -1.02856
upperback 0.526603 0.90432 -0.530334
thorax -8.03816 0.464699 -0.182244
lowerneck -14.6727 -4.37634 -8.48572
upperneck 34.0958 -7.53313 9.93413
head 15.0598 -3.01804 4.36032
rclavicle -6.4605e-015 1.35174e-014
rhumerus 59.513 64.2194 -52.8914
rradius 51.9878
rwrist 16.773
rhand -5.84285 12.2278
rfingers 7.12502
rthumb 19.9834 -16.7646
lclavicle -6.4605e-015 1.35174e-014
lhumerus 34.2455 -74.5578 71.0179
lradius 52.2209
lwrist -3.43784
lhand -11.3141 8.38107
lfingers 7.12502
lthumb 14.7178 37.8386
rfemur -6.68548 11.2311 16.6159
rtibia 25.6345
rfoot -13.3973 -11.8123
rtoes -9.92709
lfemur -4.05939 -10.6813 -17.7746
ltibia 20.9277
lfoot -11.4381 8.46325
ltoes -11.6884
1760
root 0.353855 15.957 -0.532177 -1.33414 -1.2663 0.0525059
lowerback 15.146 0.887397 -1.10083
upperback 0.524972 0.935676 -0.592125
thorax -7.95669 0.481313 -0.211845
lowerneck -14.6757 -4.49281 -8.48029
upperneck 34.1399 -7.72441 9.9509
head 15.109 -3.09723 4.33449
rclavicle -9.74045e-015 7.35503e-015
rhumerus 56.0895 63.1801 -56.1046
rradius 50.895
rwrist 16.6167
rhand -6.24839 12.0165
rfingers 7.12502
rthumb 19.5936 -17.0161
lclavicle -9.74045e-015 7.35503e-015
lhumerus 29.9776 -73.154 74.7854
lradius 51.4333
lwrist -3.72084
lhand -11.3826 8.65348
lfingers 7.12502
lthumb 14.6519 38.1158
rfemur -6.82125 11.2652 16.4355
rtibia 25.5691
rfoot -13.3744 -11.6818
rtoes -9.80444
lfemur -4.09908 -10.6158 -17.8952
ltibia 20.817
lfoot -11.4686 8.56939
ltoes -11.6878
1761
root 0.355657 15.9611 -0.535678 -1.32477 -1.43987 0.0525281
lowerback 15.0532 0.905444 -1.01972
upperback 0.558158 0.970593 -0.650057
thorax -7.86657 0.493932 -0.325197
lowerneck -14.6152 -4.56395 -8.49405
upperneck 34.0917 -7.85587 10.0221
head 15.0949 -3.14852 4.34216
rclavicle -2.08475e-014 5.56597e-015
rhumerus 52.0075 61.8196 -60.0555
rradius 49.8172
rwrist 16.92
rhand -6.57577 11.9866
rfingers 7.12502
rthumb 19.2788 -17.0778
lclavicle -2.08475e-014 5.56597e-015
lhumerus 26.1773 -71.5616 77.9647
lradius 50.6396
lwrist -3.99623
lhand -11.4407 9.09067
lfingers 7.12502
lthumb 14.5959 38.5571
rfemur -6.8463 11.3242 16.4199
rtibia 25.4983
rfoot -13.3058 -11.5813
rtoes -9.84002
lfemur -4.00594 -10.5713 -17.9051
ltibia 20.6622
lfoot -11.454 8.7377
ltoes -11.6844
